<svg width="1440" height="698" viewBox="0 0 1440 698" fill="none" xmlns="http://www.w3.org/2000/svg">
<path fill-rule="evenodd" clip-rule="evenodd" d="M1440 0V281.43C1440 359.089 1392.74 428.931 1320.65 457.807L725.937 696.021C721.163 697.933 715.837 697.933 711.063 696.021L116.351 457.807C44.2608 428.931 -3 359.089 -3 281.43V0L559.981 122.506C582.119 58.7591 642.716 13 714 13C785.962 13 847.033 59.6335 868.64 124.329L1440 0ZM613.377 134.125L718.5 157L815.354 135.924C799.387 95.5778 760.026 67.0399 714 67.0399C668.661 67.0399 629.79 94.7319 613.377 134.125Z" fill="#A9E6FF"/>
</svg>
